ffmpeg started on 2025-05-12 at 14:17:37
Report written to "D:\Convert\FFMetrics\reports\ssim_report-6.txt"
Log level: 32
Command line:
ffmpeg -hide_banner -nostdin -i "G:\\\xc0\xed\xe8\xec\xe5\\\xce\xed\xe3\xee\xe8\xed\xe3\xe8\\!_35_\xcb\xe5\xf2\xee_2024\\DreamCast\\\xc2\xe8\xf2\xf3\xe1\xe5\xf0 - \xdf \xf1\xf2\xe0\xeb\xe0 \xef\xee\xef\xf3\xeb\xff\xf0\xed\xee\xe9 \xef\xee\xf1\xeb\xe5 \xf2\xee\xe3\xee, \xea\xe0\xea \xe7\xe0\xe1\xfb\xeb\xe0 \xe2\xfb\xea\xeb\xfe\xf7\xe8\xf2\xfc \xf1\xf2\xf0\xe8\xec\\[DC] Vden - 07_Telegram_HEVC.mkv" -i "G:\\\xc0\xed\xe8\xec\xe5\\\xce\xed\xe3\xee\xe8\xed\xe3\xe8\\!_35_\xcb\xe5\xf2\xee_2024\\DreamCast\\\xc2\xe8\xf2\xf3\xe1\xe5\xf0 - \xdf \xf1\xf2\xe0\xeb\xe0 \xef\xee\xef\xf3\xeb\xff\xf0\xed\xee\xe9 \xef\xee\xf1\xeb\xe5 \xf2\xee\xe3\xee, \xea\xe0\xea \xe7\xe0\xe1\xfb\xeb\xe0 \xe2\xfb\xea\xeb\xfe\xf7\xe8\xf2\xfc \xf1\xf2\xf0\xe8\xec\\[DC] Vden - 07_Telegram.mp4" -lavfi "[0:v]settb=AVTB,setpts=PTS-STARTPTS,format=pix_fmts=yuv420p10,fps=24000/1001,scale=1920:1080:flags=bicubic[main];[1:v]settb=AVTB,setpts=PTS-STARTPTS,format=pix_fmts=yuv420p,fps=24000/1001,scale=1920:1080:flags=bicubic[ref];[main][ref]ssim=eof_action=endall:stats_file='D\\:/Convert/FFMetrics/logs/ssim_logfile-6.txt'" -f null -
Input #0, matroska,webm, from 'G:\Аниме\Онгоинги\!_35_Лето_2024\DreamCast\Витубер - Я стала популярной после того, как забыла выключить стрим\[DC] Vden - 07_Telegram_HEVC.mkv':
  Metadata:
    COMPATIBLE_BRANDS: isomiso2avc1mp41
    MAJOR_BRAND     : isom
    MINOR_VERSION   : 512
    ENCODER         : Lavf61.7.100
  Duration: 00:23:46.77, start: -0.021000, bitrate: 1444 kb/s
  Stream #0:0: Video: hevc (Main 10), yuv420p10le(tv, bt709, progressive), 1920x1080 [SAR 1:1 DAR 16:9], 23.98 fps, 23.98 tbr, 1k tbn (default)
      Metadata:
        HANDLER_NAME    : VideoHandler
        VENDOR_ID       : [0][0][0][0]
        ENCODER         : Lavc61.19.100 libx265
        BPS             : 1247985
        DURATION        : 00:23:46.633708333
        NUMBER_OF_FRAMES: 34205
        NUMBER_OF_BYTES : 222552092
        _STATISTICS_WRITING_APP: mkvpropedit v66.0.0 ('Josie') 64-bit
        _STATISTICS_WRITING_DATE_UTC: 2025-05-06 18:10:12
        _STATISTICS_TAGS: BPS DURATION NUMBER_OF_FRAMES NUMBER_OF_BYTES
  Stream #0:1: Audio: aac (LC), 48000 Hz, stereo, fltp (default)
      Metadata:
        HANDLER_NAME    : SoundHandler
        VENDOR_ID       : [0][0][0][0]
        ENCODER         : Lavc61.19.100 aac
        BPS             : 192380
        DURATION        : 00:23:46.773000000
        NUMBER_OF_FRAMES: 66881
        NUMBER_OF_BYTES : 34310465
        _STATISTICS_WRITING_APP: mkvpropedit v66.0.0 ('Josie') 64-bit
        _STATISTICS_WRITING_DATE_UTC: 2025-05-06 18:10:12
        _STATISTICS_TAGS: BPS DURATION NUMBER_OF_FRAMES NUMBER_OF_BYTES
Input #1, mov,mp4,m4a,3gp,3g2,mj2, from 'G:\Аниме\Онгоинги\!_35_Лето_2024\DreamCast\Витубер - Я стала популярной после того, как забыла выключить стрим\[DC] Vden - 07_Telegram.mp4':
  Metadata:
    major_brand     : isom
    minor_version   : 512
    compatible_brands: isomiso2avc1mp41
    encoder         : Lavf60.16.100
  Duration: 00:23:46.75, start: 0.000000, bitrate: 3881 kb/s
  Stream #1:0[0x1](und): Video: h264 (High) (avc1 / 0x31637661), yuv420p(tv, bt709, progressive), 1920x1080 [SAR 1:1 DAR 16:9], 3734 kb/s, 23.98 fps, 23.98 tbr, 24k tbn (default)
      Metadata:
        handler_name    : VideoHandler
        vendor_id       : [0][0][0][0]
        encoder         : Lavc60.31.102 h264_qsv
  Stream #1:1[0x2](und): Audio: aac (HE-AACv2) (mp4a / 0x6134706D), 48000 Hz, stereo, fltp, 144 kb/s (default)
      Metadata:
        handler_name    : SoundHandler
        vendor_id       : [0][0][0][0]
Stream mapping:
  Stream #0:0 (hevc) -> settb:default
  Stream #1:0 (h264) -> settb:default
  ssim:default -> Stream #0:0 (wrapped_avframe)
  Stream #0:1 -> #0:1 (aac (native) -> pcm_s16le (native))
Output #0, null, to 'pipe:':
  Metadata:
    COMPATIBLE_BRANDS: isomiso2avc1mp41
    MAJOR_BRAND     : isom
    MINOR_VERSION   : 512
    encoder         : Lavf61.7.100
  Stream #0:0: Video: wrapped_avframe, yuv420p10le(tv, bt709, progressive), 1920x1080 [SAR 1:1 DAR 16:9], q=2-31, 200 kb/s, 23.98 fps, 23.98 tbn
      Metadata:
        encoder         : Lavc61.19.100 wrapped_avframe
  Stream #0:1: Audio: pcm_s16le, 48000 Hz, stereo, s16, 1536 kb/s (default)
      Metadata:
        HANDLER_NAME    : SoundHandler
        VENDOR_ID       : [0][0][0][0]
        _STATISTICS_TAGS: BPS DURATION NUMBER_OF_FRAMES NUMBER_OF_BYTES
        BPS             : 192380
        DURATION        : 00:23:46.773000000
        NUMBER_OF_FRAMES: 66881
        NUMBER_OF_BYTES : 34310465
        _STATISTICS_WRITING_APP: mkvpropedit v66.0.0 ('Josie') 64-bit
        _STATISTICS_WRITING_DATE_UTC: 2025-05-06 18:10:12
        encoder         : Lavc61.19.100 pcm_s16le
frame=  160 fps=0.0 q=-0.0 size=N/A time=00:00:06.67 bitrate=N/A speed=13.2x    frame=  377 fps=367 q=-0.0 size=N/A time=00:00:15.72 bitrate=N/A speed=15.3x    frame=  593 fps=387 q=-0.0 size=N/A time=00:00:24.73 bitrate=N/A speed=16.1x    frame=  827 fps=403 q=-0.0 size=N/A time=00:00:34.49 bitrate=N/A speed=16.8x    frame= 1034 fps=403 q=-0.0 size=N/A time=00:00:43.12 bitrate=N/A speed=16.8x    frame= 1239 fps=401 q=-0.0 size=N/A time=00:00:51.67 bitrate=N/A speed=16.7x    frame= 1440 fps=400 q=-0.0 size=N/A time=00:01:00.06 bitrate=N/A speed=16.7x    frame= 1652 fps=401 q=-0.0 size=N/A time=00:01:08.90 bitrate=N/A speed=16.7x    frame= 1837 fps=397 q=-0.0 size=N/A time=00:01:16.61 bitrate=N/A speed=16.6x    frame= 2048 fps=398 q=-0.0 size=N/A time=00:01:25.41 bitrate=N/A speed=16.6x    frame= 2224 fps=392 q=-0.0 size=N/A time=00:01:32.75 bitrate=N/A speed=16.4x    frame= 2397 fps=387 q=-0.0 size=N/A time=00:01:39.97 bitrate=N/A speed=16.1x    frame= 2571 fps=383 q=-0.0 size=N/A time=00:01:47.23 bitrate=N/A speed=  16x    frame= 2720 fps=377 q=-0.0 size=N/A time=00:01:53.44 bitrate=N/A speed=15.7x    frame= 2911 fps=376 q=-0.0 size=N/A time=00:02:01.41 bitrate=N/A speed=15.7x    frame= 3099 fps=375 q=-0.0 size=N/A time=00:02:09.25 bitrate=N/A speed=15.7x    frame= 3363 fps=383 q=-0.0 size=N/A time=00:02:20.26 bitrate=N/A speed=  16x    frame= 3608 fps=389 q=-0.0 size=N/A time=00:02:30.48 bitrate=N/A speed=16.2x    frame= 3775 fps=385 q=-0.0 size=N/A time=00:02:37.44 bitrate=N/A speed=16.1x    frame= 3933 fps=381 q=-0.0 size=N/A time=00:02:44.03 bitrate=N/A speed=15.9x    frame= 4187 fps=386 q=-0.0 size=N/A time=00:02:54.63 bitrate=N/A speed=16.1x    frame= 4445 fps=392 q=-0.0 size=N/A time=00:03:05.39 bitrate=N/A speed=16.3x    frame= 4692 fps=395 q=-0.0 size=N/A time=00:03:15.69 bitrate=N/A speed=16.5x    frame= 4940 fps=399 q=-0.0 size=N/A time=00:03:26.03 bitrate=N/A speed=16.6x    frame= 5216 fps=404 q=-0.0 size=N/A time=00:03:37.55 bitrate=N/A speed=16.9x    frame= 5465 fps=408 q=-0.0 size=N/A time=00:03:47.93 bitrate=N/A speed=  17x    frame= 5736 fps=412 q=-0.0 size=N/A time=00:03:59.23 bitrate=N/A speed=17.2x    frame= 5997 fps=415 q=-0.0 size=N/A time=00:04:10.12 bitrate=N/A speed=17.3x    frame= 6276 fps=419 q=-0.0 size=N/A time=00:04:21.76 bitrate=N/A speed=17.5x    frame= 6500 fps=420 q=-0.0 size=N/A time=00:04:31.10 bitrate=N/A speed=17.5x    frame= 6742 fps=421 q=-0.0 size=N/A time=00:04:41.19 bitrate=N/A speed=17.6x    frame= 6998 fps=424 q=-0.0 size=N/A time=00:04:51.87 bitrate=N/A speed=17.7x    frame= 7266 fps=427 q=-0.0 size=N/A time=00:05:03.05 bitrate=N/A speed=17.8x    frame= 7523 fps=429 q=-0.0 size=N/A time=00:05:13.77 bitrate=N/A speed=17.9x    frame= 7786 fps=431 q=-0.0 size=N/A time=00:05:24.74 bitrate=N/A speed=  18x    frame= 8035 fps=433 q=-0.0 size=N/A time=00:05:35.12 bitrate=N/A speed=  18x    frame= 8295 fps=434 q=-0.0 size=N/A time=00:05:45.97 bitrate=N/A speed=18.1x    frame= 8561 fps=437 q=-0.0 size=N/A time=00:05:57.06 bitrate=N/A speed=18.2x    frame= 8774 fps=436 q=-0.0 size=N/A time=00:06:05.94 bitrate=N/A speed=18.2x    frame= 9033 fps=438 q=-0.0 size=N/A time=00:06:16.75 bitrate=N/A speed=18.3x    frame= 9293 fps=439 q=-0.0 size=N/A time=00:06:27.59 bitrate=N/A speed=18.3x    frame= 9555 fps=441 q=-0.0 size=N/A time=00:06:38.52 bitrate=N/A speed=18.4x    frame= 9775 fps=441 q=-0.0 size=N/A time=00:06:47.69 bitrate=N/A speed=18.4x    frame=10036 fps=442 q=-0.0 size=N/A time=00:06:58.58 bitrate=N/A speed=18.4x    frame=10279 fps=443 q=-0.0 size=N/A time=00:07:08.71 bitrate=N/A speed=18.5x    frame=10476 fps=442 q=-0.0 size=N/A time=00:07:16.93 bitrate=N/A speed=18.4x    frame=10697 fps=441 q=-0.0 size=N/A time=00:07:26.15 bitrate=N/A speed=18.4x    frame=10922 fps=441 q=-0.0 size=N/A time=00:07:35.53 bitrate=N/A speed=18.4x    frame=11112 fps=440 q=-0.0 size=N/A time=00:07:43.46 bitrate=N/A speed=18.3x    frame=11298 fps=438 q=-0.0 size=N/A time=00:07:51.22 bitrate=N/A speed=18.3x    frame=11526 fps=438 q=-0.0 size=N/A time=00:08:00.73 bitrate=N/A speed=18.3x    frame=11747 fps=438 q=-0.0 size=N/A time=00:08:09.94 bitrate=N/A speed=18.3x    frame=11935 fps=437 q=-0.0 size=N/A time=00:08:17.78 bitrate=N/A speed=18.2x    frame=12181 fps=437 q=-0.0 size=N/A time=00:08:28.04 bitrate=N/A speed=18.2x    frame=12433 fps=438 q=-0.0 size=N/A time=00:08:38.55 bitrate=N/A speed=18.3x    frame=12635 fps=438 q=-0.0 size=N/A time=00:08:46.98 bitrate=N/A speed=18.2x    frame=12875 fps=438 q=-0.0 size=N/A time=00:08:56.99 bitrate=N/A speed=18.3x    frame=13088 fps=438 q=-0.0 size=N/A time=00:09:05.87 bitrate=N/A speed=18.2x    frame=13319 fps=438 q=-0.0 size=N/A time=00:09:15.51 bitrate=N/A speed=18.3x    frame=13535 fps=437 q=-0.0 size=N/A time=00:09:24.52 bitrate=N/A speed=18.2x    frame=13776 fps=438 q=-0.0 size=N/A time=00:09:34.57 bitrate=N/A speed=18.3x    frame=13996 fps=438 q=-0.0 size=N/A time=00:09:43.74 bitrate=N/A speed=18.3x    frame=14207 fps=437 q=-0.0 size=N/A time=00:09:52.55 bitrate=N/A speed=18.2x    frame=14456 fps=438 q=-0.0 size=N/A time=00:10:02.93 bitrate=N/A speed=18.3x    frame=14708 fps=439 q=-0.0 size=N/A time=00:10:13.44 bitrate=N/A speed=18.3x    frame=14959 fps=440 q=-0.0 size=N/A time=00:10:23.91 bitrate=N/A speed=18.3x    frame=15190 fps=440 q=-0.0 size=N/A time=00:10:33.54 bitrate=N/A speed=18.3x    frame=15448 fps=440 q=-0.0 size=N/A time=00:10:44.31 bitrate=N/A speed=18.4x    frame=15699 fps=441 q=-0.0 size=N/A time=00:10:54.77 bitrate=N/A speed=18.4x    frame=15921 fps=441 q=-0.0 size=N/A time=00:11:04.03 bitrate=N/A speed=18.4x    frame=16151 fps=441 q=-0.0 size=N/A time=00:11:13.63 bitrate=N/A speed=18.4x    frame=16374 fps=441 q=-0.0 size=N/A time=00:11:22.93 bitrate=N/A speed=18.4x    frame=16581 fps=440 q=-0.0 size=N/A time=00:11:31.56 bitrate=N/A speed=18.4x    frame=16810 fps=440 q=-0.0 size=N/A time=00:11:41.11 bitrate=N/A speed=18.4x    frame=16974 fps=439 q=-0.0 size=N/A time=00:11:47.95 bitrate=N/A speed=18.3x    frame=17142 fps=437 q=-0.0 size=N/A time=00:11:54.96 bitrate=N/A speed=18.2x    frame=17360 fps=437 q=-0.0 size=N/A time=00:12:04.05 bitrate=N/A speed=18.2x    frame=17575 fps=437 q=-0.0 size=N/A time=00:12:13.02 bitrate=N/A speed=18.2x    frame=17831 fps=438 q=-0.0 size=N/A time=00:12:23.70 bitrate=N/A speed=18.3x    frame=18086 fps=438 q=-0.0 size=N/A time=00:12:34.33 bitrate=N/A speed=18.3x    frame=18348 fps=439 q=-0.0 size=N/A time=00:12:45.26 bitrate=N/A speed=18.3x    frame=18575 fps=439 q=-0.0 size=N/A time=00:12:54.73 bitrate=N/A speed=18.3x    frame=18768 fps=438 q=-0.0 size=N/A time=00:13:02.78 bitrate=N/A speed=18.3x    frame=18964 fps=438 q=-0.0 size=N/A time=00:13:10.95 bitrate=N/A speed=18.3x    frame=19215 fps=438 q=-0.0 size=N/A time=00:13:21.42 bitrate=N/A speed=18.3x    frame=19487 fps=439 q=-0.0 size=N/A time=00:13:32.77 bitrate=N/A speed=18.3x    frame=19743 fps=440 q=-0.0 size=N/A time=00:13:43.44 bitrate=N/A speed=18.4x    frame=19966 fps=440 q=-0.0 size=N/A time=00:13:52.74 bitrate=N/A speed=18.4x    frame=20195 fps=440 q=-0.0 size=N/A time=00:14:02.29 bitrate=N/A speed=18.3x    frame=20428 fps=440 q=-0.0 size=N/A time=00:14:12.01 bitrate=N/A speed=18.4x    frame=20691 fps=441 q=-0.0 size=N/A time=00:14:22.98 bitrate=N/A speed=18.4x    frame=20835 fps=439 q=-0.0 size=N/A time=00:14:28.99 bitrate=N/A speed=18.3x    frame=21008 fps=438 q=-0.0 size=N/A time=00:14:36.20 bitrate=N/A speed=18.3x    frame=21259 fps=439 q=-0.0 size=N/A time=00:14:46.67 bitrate=N/A speed=18.3x    frame=21502 fps=439 q=-0.0 size=N/A time=00:14:56.81 bitrate=N/A speed=18.3x    frame=21678 fps=438 q=-0.0 size=N/A time=00:15:04.15 bitrate=N/A speed=18.3x    frame=21899 fps=438 q=-0.0 size=N/A time=00:15:13.37 bitrate=N/A speed=18.3x    frame=22126 fps=438 q=-0.0 size=N/A time=00:15:22.83 bitrate=N/A speed=18.3x    frame=22366 fps=438 q=-0.0 size=N/A time=00:15:32.84 bitrate=N/A speed=18.3x    frame=22635 fps=439 q=-0.0 size=N/A time=00:15:44.06 bitrate=N/A speed=18.3x    frame=22891 fps=439 q=-0.0 size=N/A time=00:15:54.74 bitrate=N/A speed=18.3x    frame=23099 fps=439 q=-0.0 size=N/A time=00:16:03.42 bitrate=N/A speed=18.3x    frame=23345 fps=439 q=-0.0 size=N/A time=00:16:13.68 bitrate=N/A speed=18.3x    frame=23531 fps=439 q=-0.0 size=N/A time=00:16:21.43 bitrate=N/A speed=18.3x    frame=23794 fps=439 q=-0.0 size=N/A time=00:16:32.40 bitrate=N/A speed=18.3x    frame=24014 fps=439 q=-0.0 size=N/A time=00:16:41.58 bitrate=N/A speed=18.3x    frame=24286 fps=440 q=-0.0 size=N/A time=00:16:52.92 bitrate=N/A speed=18.4x    frame=24498 fps=440 q=-0.0 size=N/A time=00:17:01.77 bitrate=N/A speed=18.3x    frame=24701 fps=439 q=-0.0 size=N/A time=00:17:10.23 bitrate=N/A speed=18.3x    frame=24943 fps=440 q=-0.0 size=N/A time=00:17:20.33 bitrate=N/A speed=18.3x    frame=25205 fps=440 q=-0.0 size=N/A time=00:17:31.25 bitrate=N/A speed=18.4x    frame=25445 fps=441 q=-0.0 size=N/A time=00:17:41.26 bitrate=N/A speed=18.4x    frame=25662 fps=440 q=-0.0 size=N/A time=00:17:50.31 bitrate=N/A speed=18.4x    frame=25848 fps=440 q=-0.0 size=N/A time=00:17:58.07 bitrate=N/A speed=18.3x    frame=26106 fps=440 q=-0.0 size=N/A time=00:18:08.83 bitrate=N/A speed=18.4x    frame=26371 fps=441 q=-0.0 size=N/A time=00:18:19.89 bitrate=N/A speed=18.4x    frame=26613 fps=441 q=-0.0 size=N/A time=00:18:29.98 bitrate=N/A speed=18.4x    frame=26880 fps=442 q=-0.0 size=N/A time=00:18:41.12 bitrate=N/A speed=18.4x    frame=27075 fps=441 q=-0.0 size=N/A time=00:18:49.25 bitrate=N/A speed=18.4x    frame=27226 fps=440 q=-0.0 size=N/A time=00:18:55.55 bitrate=N/A speed=18.3x    frame=27405 fps=439 q=-0.0 size=N/A time=00:19:03.01 bitrate=N/A speed=18.3x    frame=27604 fps=439 q=-0.0 size=N/A time=00:19:11.31 bitrate=N/A speed=18.3x    frame=27835 fps=439 q=-0.0 size=N/A time=00:19:20.95 bitrate=N/A speed=18.3x    frame=28042 fps=438 q=-0.0 size=N/A time=00:19:29.58 bitrate=N/A speed=18.3x    frame=28284 fps=439 q=-0.0 size=N/A time=00:19:39.67 bitrate=N/A speed=18.3x    frame=28532 fps=439 q=-0.0 size=N/A time=00:19:50.02 bitrate=N/A speed=18.3x    frame=28785 fps=439 q=-0.0 size=N/A time=00:20:00.57 bitrate=N/A speed=18.3x    frame=29013 fps=439 q=-0.0 size=N/A time=00:20:10.08 bitrate=N/A speed=18.3x    frame=29258 fps=440 q=-0.0 size=N/A time=00:20:20.30 bitrate=N/A speed=18.3x    frame=29501 fps=440 q=-0.0 size=N/A time=00:20:30.43 bitrate=N/A speed=18.3x    frame=29720 fps=440 q=-0.0 size=N/A time=00:20:39.57 bitrate=N/A speed=18.3x    frame=29916 fps=439 q=-0.0 size=N/A time=00:20:47.74 bitrate=N/A speed=18.3x    frame=30109 fps=439 q=-0.0 size=N/A time=00:20:55.79 bitrate=N/A speed=18.3x    frame=30322 fps=439 q=-0.0 size=N/A time=00:21:04.68 bitrate=N/A speed=18.3x    frame=30563 fps=439 q=-0.0 size=N/A time=00:21:14.73 bitrate=N/A speed=18.3x    frame=30790 fps=439 q=-0.0 size=N/A time=00:21:24.19 bitrate=N/A speed=18.3x    frame=31025 fps=439 q=-0.0 size=N/A time=00:21:34.00 bitrate=N/A speed=18.3x    frame=31277 fps=439 q=-0.0 size=N/A time=00:21:44.51 bitrate=N/A speed=18.3x    frame=31527 fps=440 q=-0.0 size=N/A time=00:21:54.93 bitrate=N/A speed=18.3x    frame=31782 fps=440 q=-0.0 size=N/A time=00:22:05.57 bitrate=N/A speed=18.4x    frame=31954 fps=439 q=-0.0 size=N/A time=00:22:12.74 bitrate=N/A speed=18.3x    frame=32202 fps=440 q=-0.0 size=N/A time=00:22:23.09 bitrate=N/A speed=18.3x    frame=32449 fps=440 q=-0.0 size=N/A time=00:22:33.39 bitrate=N/A speed=18.4x    frame=32709 fps=440 q=-0.0 size=N/A time=00:22:44.23 bitrate=N/A speed=18.4x    frame=32972 fps=441 q=-0.0 size=N/A time=00:22:55.20 bitrate=N/A speed=18.4x    frame=33219 fps=441 q=-0.0 size=N/A time=00:23:05.50 bitrate=N/A speed=18.4x    frame=33481 fps=442 q=-0.0 size=N/A time=00:23:16.43 bitrate=N/A speed=18.4x    frame=33730 fps=442 q=-0.0 size=N/A time=00:23:26.82 bitrate=N/A speed=18.4x    frame=33994 fps=442 q=-0.0 size=N/A time=00:23:37.83 bitrate=N/A speed=18.4x    [Parsed_ssim_10 @ 000001c72be52700] SSIM Y:0.994099 (22.290396) U:0.991879 (20.903685) V:0.991834 (20.879739) All:0.993351 (21.772479)
[out#0/null @ 000001c72a7d0900] video:14697KiB audio:267524KiB subtitle:0KiB other streams:0KiB global headers:0KiB muxing overhead: unknown
frame=34205 fps=443 q=-0.0 Lsize=N/A time=00:23:46.63 bitrate=N/A speed=18.5x    
